<?xml version="1.0" standalone="no"?><!DOCTYPE svg PUBLIC "-//W3C//DTD SVG 1.1//EN" "http://www.w3.org/Graphics/SVG/1.1/DTD/svg11.dtd"><svg class="icon" width="200px" height="200.00px" viewBox="0 0 1024 1024" version="1.1" xmlns="http://www.w3.org/2000/svg"><path d="M748.992 265.472v-53.952a9.024 9.024 0 0 0-8.96-8.96h-432a9.024 9.024 0 0 0-9.024 8.96v53.952c0 4.992 4.032 9.024 8.96 9.024h432c4.992 0 9.024-4.032 9.024-8.96z m-440.96 99.008a9.024 9.024 0 0 0-9.024 8.96v54.08c0 4.928 4.032 8.96 8.96 8.96h207.04c4.928 0 8.96-4.032 8.96-8.96v-54.016a9.024 9.024 0 0 0-8.96-8.96H307.968z m422.976 130.56a243.008 243.008 0 1 0 0 485.952 243.008 243.008 0 0 0 0-486.016z m120.96 363.904a169.92 169.92 0 0 1-120.96 50.048 169.92 169.92 0 0 1-120.96-50.048 169.92 169.92 0 0 1-50.048-120.96c0-45.632 17.792-88.64 50.048-120.96a169.92 169.92 0 0 1 120.96-50.048c45.696 0 88.64 17.792 120.96 50.112 32.256 32.256 50.048 75.264 50.048 120.96 0 45.632-17.792 88.576-50.048 120.896zM695.04 828.032a35.968 35.968 0 1 0 71.936 0 35.968 35.968 0 0 0-72 0zM708.48 756.032h44.992c4.992 0 9.024-4.096 9.024-9.024V620.992a9.024 9.024 0 0 0-8.96-8.96h-45.056a9.024 9.024 0 0 0-8.96 8.96v126.016c0 4.928 4.032 8.96 8.96 8.96zM470.016 872.96H209.024V81.088h629.952v386.944c0 4.992 4.096 9.024 9.024 9.024h62.976c4.992 0 9.024-4.032 9.024-8.96V36.032A35.968 35.968 0 0 0 883.968 0H164.032A35.968 35.968 0 0 0 128 36.032v881.92c0 19.968 16.064 36.032 36.032 36.032h305.92c4.992 0 9.024-4.032 9.024-8.96v-63.04a9.024 9.024 0 0 0-8.96-8.96z" /></svg>