<?xml version="1.0" standalone="no"?><!DOCTYPE svg PUBLIC "-//W3C//DTD SVG 1.1//EN" "http://www.w3.org/Graphics/SVG/1.1/DTD/svg11.dtd"><svg class="icon" width="200px" height="200.00px" viewBox="0 0 1024 1024" version="1.1" xmlns="http://www.w3.org/2000/svg"><path d="M365.226667 140.266667C406.741333 65.877333 462.357333 32 512 32c49.002667 0 104.810667 31.658667 146.730667 105.856 41.728 73.877333 71.466667 192.064 71.466666 374.144s-29.738667 300.266667-71.466666 374.144C616.810667 960.341333 561.024 992 512 992c-49.621333 0-105.237333-33.877333-146.773333-108.266667C323.584 809.237333 293.802667 691.2 293.802667 512c0-179.178667 29.781333-297.237333 71.381333-371.733333z m55.850666 31.210666C386.773333 232.874667 357.824 338.816 357.824 512c0 173.184 28.949333 279.125333 63.253333 340.522667C455.466667 914.048 492.928 928 512 928c19.712 0 57.002667-13.141333 91.008-73.344 34.176-60.522667 63.189333-166.336 63.189333-342.656s-29.013333-282.133333-63.189333-342.656C569.002667 109.141333 531.712 96 512 96c-19.072 0-56.533333 13.952-90.922667 75.477333zM772.053333 189.674667c87.210667-2.666667 145.749333 27.946667 170.816 71.765333 24.704 43.136 23.850667 108.352-21.610666 183.210667-45.333333 74.709333-136.448 162.346667-300.053334 257.578666-163.605333 95.253333-284.458667 131.029333-371.413333 133.290667-87.253333 2.24-143.893333-29.696-168.64-72.96-25.024-43.690667-22.08-109.866667 23.722667-184.533333 45.952-74.944 136.938667-162.538667 297.941333-256.256C563.797333 228.053333 684.586667 192.362667 772.053333 189.653333z m1.941334 63.978666c-72.768 2.218667-182.933333 32.576-338.986667 123.413334-156.032 90.837333-237.226667 171.882667-275.584 234.432-38.528 62.805333-32.064 102.954667-22.741333 119.253333 9.6 16.768 39.808 42.624 111.445333 40.789333 71.936-1.877333 181.994667-32.128 340.864-124.608 158.869333-92.48 239.936-173.482667 277.546667-235.477333 37.546667-61.824 30.442667-101.376 20.8-118.229333-9.28-16.192-40.32-41.813333-113.344-39.573334zM251.968 189.674667c87.466667 2.688 208.234667 38.378667 369.237333 132.096 161.002667 93.717333 251.989333 181.333333 297.941334 256.256 45.802667 74.666667 48.746667 140.842667 23.722666 184.533333-24.746667 43.264-81.408 75.2-168.64 72.96-86.954667-2.261333-207.808-38.037333-371.413333-133.290667-163.626667-95.253333-254.72-182.869333-300.074667-257.578666-45.44-74.88-46.293333-140.074667-21.610666-183.210667 25.088-43.797333 83.626667-74.432 170.837333-71.765333z m-1.941333 63.978666c-73.045333-2.24-104.064 23.381333-113.344 39.573334-9.642667 16.853333-16.746667 56.405333 20.778666 118.229333 37.632 61.973333 118.698667 142.997333 277.546667 235.477333 158.890667 92.48 268.949333 122.730667 340.864 124.586667 71.658667 1.856 101.866667-24 111.466667-40.746667 9.322667-16.32 15.786667-56.469333-22.741334-119.274666-38.357333-62.549333-119.573333-143.573333-275.605333-234.432l16.106667-27.648-16.106667 27.648c-156.053333-90.837333-266.197333-121.173333-338.986667-123.413334z" /></svg>